<?xml version="1.0" encoding="UTF-8" standalone="no"?>
<!DOCTYPE svg PUBLIC "-//W3C//DTD SVG 1.1//EN">
<svg width="100%" height="100%" viewBox="0 0 1148 780" version="1.1" xmlns="http://www.w3.org/2000/svg"
     xmlns:xlink="http://www.w3.org/1999/xlink" xml:space="preserve"
     style="fill-rule:evenodd;clip-rule:evenodd;stroke-linejoin:round;stroke-miterlimit:2;">
    <g transform="matrix(0.664936,-0.0115634,0.0124072,0.713458,45.4208,-27.5162)">
        <path d="M1077.37,513.316C1075.99,518.08 1074.51,518.98 1073.47,520.057C1070.87,522.735 1064.96,523.057 1061.58,520.678C1054.46,530.992 1064.47,544.789 1078.36,546.321C1061.05,550.284 1042.75,530.908 1044.02,515.628C1044.45,510.391 1046.94,507.839 1050.93,507.857C1047.47,506.244 1047.26,503.914 1051.01,500.708C1055.81,496.608 1062.59,498.189 1065.39,500.398C1067.09,501.741 1068.91,501.523 1070.83,500.32C1078.65,495.393 1075.85,490.309 1070.55,489.1C1065.79,488.012 1063.11,485.13 1062.9,480.117C1056.65,484.518 1045.8,481.531 1047.08,472.047C1037.42,473.621 1029.41,477.882 1023.78,487.055C1027.05,473.081 1034.35,463.096 1047.27,458.671C1049.84,457.789 1052.08,458.266 1053.8,459.292C1054.71,459.841 1056.53,459.887 1056.44,458.826C1056.17,455.8 1057.41,455.169 1060.01,455.329C1064.98,455.635 1067.96,457.805 1069.95,461.506C1070.44,462.422 1070.55,467.935 1069.8,468.617C1069.16,469.205 1068.13,470.887 1069.67,471.842C1076.7,476.192 1081.62,475.626 1081.77,470.948C1081.83,469.166 1081.02,467.663 1079.74,466.604C1073.59,461.506 1074.1,456.816 1079.73,455.989C1080.74,455.84 1081.33,454.445 1080.53,453.309C1078.26,450.103 1075.23,448.778 1072.21,447.404C1078.76,446.564 1085.26,445.866 1089.23,452.532C1089.58,453.117 1089.71,451.122 1090.54,450.821C1092.17,450.231 1092.57,451.429 1093.86,452.312C1095.76,453.624 1099.71,463.92 1096.07,465.742C1092.87,467.344 1092.31,469.668 1092.64,471.305C1093.08,473.45 1095.73,478.334 1095.84,479.938C1095.89,480.661 1096.23,482.899 1096.14,484.089C1098.89,483.685 1100.71,484.796 1101.97,487.421C1102.3,488.109 1103.21,489.313 1103.37,488.198C1104.06,483.503 1105.61,480.605 1110.6,478.563C1114.42,476.995 1120.28,468.473 1122.17,464.732C1123.94,461.255 1128.95,448.877 1132.74,443.441C1131.37,443.07 1130.28,443.273 1129.32,443.752C1129.53,438.353 1127.12,436.137 1131.79,432.015C1131.11,430.092 1128.37,426.582 1126.53,424.461C1125.59,423.375 1127.18,422.551 1127.73,421.984C1130.47,419.156 1137.96,416.491 1142.36,415.113C1143.34,414.803 1144.03,414.496 1144.75,415.54C1156.79,433.099 1166.13,449.167 1178.48,462.711C1179.82,464.179 1178.67,465.566 1178.16,466.246C1176.37,468.603 1168.47,475.25 1165.63,475.28C1163.32,475.305 1165.18,474.932 1160.7,472.007C1160.08,471.599 1158.02,470.399 1157.19,471.492C1153.76,476.037 1147.38,477.633 1140.64,478.874C1133.43,480.524 1123.83,486.198 1121.55,492.576C1120.48,495.558 1122.51,501.448 1122.22,502.764C1120.89,508.88 1122.33,512.859 1125.18,513.109C1126.98,513.267 1125.97,517.444 1129,517.513C1137.47,509.166 1148.53,530.324 1135.87,530.712C1152.85,554.076 1112.95,569.654 1094.45,552.227C1108.31,560.021 1136.1,545.687 1122.82,535.56C1113.58,540.595 1110.05,527.745 1113.38,525.739C1117.23,523.42 1113.42,516.993 1110.08,516.547C1112.36,514.329 1107.48,501.954 1092.48,508.993C1087.74,511.221 1085.88,514.249 1082.41,515.832C1081.73,516.142 1077.26,514.376 1077.37,513.316C1077.41,513.185 1077.45,513.052 1077.49,512.915C1077.42,513.054 1077.39,513.188 1077.37,513.316ZM434.195,724.697C435.316,726.066 436.434,727.485 437.548,728.949C436.317,727.609 435.198,726.193 434.195,724.697ZM1215.43,485.474C1199.58,468.707 1181.88,448.287 1172.62,434.54C1153.42,406.055 1132.88,377.387 1105.88,358.01C1095.01,350.211 1078.75,344.63 1062.32,340.777C1044.79,336.668 1014.15,335.065 993.097,340.798C971.518,346.674 948.658,356.658 931.421,368.527C910.288,383.079 894.315,397.653 886.165,406.955C871.397,423.814 858.834,441.984 851.082,461.273C845.824,457.413 842.788,455.992 839.192,454.976C827.891,451.782 809.752,455.178 799.82,466.999C795.233,472.456 793.95,482.308 801.336,489.699C798.604,476.589 803.203,472.075 806.217,469.52C817.386,460.052 840.097,461.073 848.994,469.838C853.785,474.559 859.767,481.372 859.744,488.663C887.368,499.264 898.778,524.126 881.733,547.13C868.654,524.146 841.675,522.148 824.339,538.597C814.966,547.49 810.533,562.564 815.178,575.479C751.926,580.54 731.988,547.185 743.084,520.807C726.638,541.82 742.493,576.123 774.703,579.86C781.628,580.663 792.403,581.806 800.499,583.001C820.479,585.948 833.766,600.985 834.115,621.12C834.527,644.845 821.079,661.976 800.082,671.741C788.167,677.282 775.217,679.93 761.483,681.162C746.428,682.514 728.459,690.114 719.404,696.06C696.873,663.199 721.727,637.039 761.496,645.674C788.727,651.586 809.375,642.932 814.272,627.742C819.678,610.97 807.592,597.735 788.394,597.644C814.001,609.702 810.325,635.64 783.727,636.368C764.656,636.89 752.043,635.097 739.777,635.383C717.958,635.893 685.733,664.884 711.996,699.463C697.978,710.402 689.014,720.29 684.029,728.122C664.631,758.596 677.032,793.487 708.353,794.19C691.61,778.321 687.329,753.131 704.568,731.51C714.693,718.811 733.038,709.218 757.602,705.648C775.115,703.103 826.957,709.321 854.2,664.194C859.257,655.817 862.287,648.168 863.161,630.168C863.849,616.016 889.953,597.166 903.787,616.417C898.111,615.398 892.873,624.948 900.276,629.544C906.59,633.463 914.745,633.112 921.73,630.572C938.883,624.336 947.458,608.323 949.267,594.125C950.071,587.821 948.732,580.513 947.289,574.897C955.756,587.702 957.246,602.75 955.492,620.637C953.228,643.722 936.307,656.106 910.458,662.11C895.453,665.596 883.679,671.809 879.048,681.717C869.866,701.363 849.951,736.38 783.812,736.312C769.415,736.298 758.177,737.656 748.444,741.304C740.403,744.319 734.726,750.072 732.178,755.831C725.472,770.989 740.82,785.309 750.4,784.765C771.896,783.544 775.061,778.731 787.231,760.176C782.587,811.531 721.488,830.743 659.869,812.459C608.005,796.055 610.541,738.989 646.975,726.264C587.021,740.201 603.137,829.859 697.799,834.828C688.636,849.105 676.346,859.884 662.542,868.973C651.634,827.689 605.55,807.469 555.297,837.284C522.446,800.669 451.881,814.918 451.292,876.44C445.563,869.137 438.888,861.631 430.327,855.107C395.439,828.524 365.576,843.411 353.602,851.985C333.275,866.541 336.227,903.023 364.707,909.431C392.907,915.776 414.534,884.269 389.062,869.577C391.257,876.151 390.153,879.325 384.961,882.363C378.74,886.002 369.63,883.438 364.575,877.975C357.866,870.724 361.777,857.497 373.773,853.222C386.012,848.859 404.535,851.824 411.905,856.933C434.156,872.357 451.055,898.199 461.696,922.488C467.816,936.455 466.694,949.297 459.896,957.267C455.976,961.863 449.112,966.7 440.798,967.456C438.222,967.691 429.695,974.277 426.341,976.959C420.478,981.646 414.852,981.36 409.399,977.457C406.864,975.643 398.339,976.819 393.589,979.243C372.462,995.737 363.684,1012.43 361.251,1029.23C359.517,1022.45 357.956,1015.04 360,994.491C362.787,966.472 377.822,952.685 400.206,945.588C406.478,943.599 410.127,940.144 412.348,936.799C422.014,922.245 444.735,929.457 449.064,942.846C452.6,924.955 432.865,917.399 419.947,921.925C413.826,924.069 405.723,931.741 404.799,935.583C403.48,941.061 394.798,942.646 388.133,944.417C351.293,954.212 291.749,918.344 325.928,863.381C293.668,893.427 311.298,951.397 375.544,952.131C362.323,963.938 292.475,948.402 261.292,915.575C235.034,887.933 227.157,872.025 221.045,843.651C214.467,813.114 223.017,776.457 233.116,757.479C247.378,730.678 261.546,711.164 280.485,693.292C290.658,683.692 340.015,631.7 373.958,604.813C383.165,597.52 418.493,557.34 424.055,529.359C429.547,501.732 431.011,476.916 419.832,463.563C417.52,462.005 414.295,461.878 410.951,461.938C421.807,457.526 427.596,458.419 438.149,463.56C437.384,459.582 429.334,452.956 418.037,450.791C409.392,449.134 388.793,449.548 381.055,448.977C366.463,447.901 353.203,442.084 344.665,436.75C348.092,439.877 350.193,442.423 355.323,445.821C359.947,448.884 364.19,451.634 371.438,453.995C352.023,456.432 339.379,452.031 327.299,446.227C319.571,442.514 309.621,437.922 298.722,440.204C308.237,441.369 317.175,448.655 321.88,452.309C333.211,461.108 341.192,465.904 354.898,467.684C376.28,470.461 386.817,473.161 397.321,477.52C395.346,474.283 391.82,471.031 385.597,468.306C395.558,467.717 403.294,466.273 407.563,463.5C414.468,473.034 416.521,482.188 415.957,491.136C400.968,490.246 387.463,490.218 382.174,493.9C381.372,488.889 383.039,486.62 382.369,482.832C381.327,476.935 374.206,471.742 368.684,472.536C355.556,474.424 342,480.006 317.399,470.419C310.798,467.847 304.875,462.363 288.33,459.792C277.333,458.083 271.196,454.557 266.344,449.405C264.006,446.923 252.865,442.006 247.305,440.754C258.152,446.647 266.786,453.273 271.611,461.16C275.437,467.414 283.245,471.718 291.804,474.966C296.771,476.85 303.975,477.362 308.846,477.556C305.431,478.857 300.593,478.978 294.064,479.086C277.072,479.368 262.521,470.634 257.855,467.189C246.508,458.809 236.362,453.102 226.626,445.184C230.176,452.731 238.454,456.826 240.791,461.069C248.99,470.342 258.039,475.001 267.348,478.245C258.156,477.375 248.328,475.194 240.768,471.998C226.861,466.119 214.693,459.177 204.174,450.674C207.979,456.097 213.673,464.812 216.869,471.126C221.537,480.346 233.218,486.436 246.091,490.153C215.813,493.226 185.642,466.818 186.154,453.513C181.839,475.13 208.997,503.646 236.047,496.116C206.549,510.11 179.093,495.67 171.457,473.968C168.512,495.733 179.836,515.535 210.133,532.726C188.178,529.94 163.065,513.312 154.399,490.028C154.943,503.229 154.752,516.394 170.008,530.306C186.209,545.081 188.353,563.263 176.405,578.876C180.346,562.78 182.653,549.946 158.187,539.71C146.808,534.949 139.451,529.374 134.552,520.338C134.099,536.282 139.326,546.512 147.513,553.766C158.64,563.625 174.174,581.147 153.622,614.006C160.319,595.073 153.701,576.008 135.757,566.58C119.116,557.835 115.848,545.807 113.103,534.672C111.966,547.435 118.346,558.101 132.102,567.708C157.453,585.412 148.109,629.988 110.605,629.406C140.88,617.066 145.651,589.948 118.477,571.74C102.446,560.998 98.42,552.973 94.943,545.018C95.994,562.513 106.54,569.497 116.624,577.395C82.958,566.808 71.251,538.065 85.323,512.597C76.523,518.263 69.115,529.018 67.603,542.07C65.411,528.71 70.039,512.336 76.865,500.022C70.908,505.147 65.596,506.2 59.045,511.431C67.429,501.115 73.691,494.527 74.479,480.428C80.457,479.246 85.364,479.771 89.802,481.221C104.988,486.184 115.23,485.419 123.094,481.897C139.316,474.633 148.777,466.367 154.999,455.186C162.458,441.782 173.668,428.811 190.676,422.002C226.352,406.907 245.431,399.921 248.52,398.57C261.144,393.049 270.76,377.898 260.261,364.317C274.943,361.775 285.919,356.593 291.252,347.394C277.584,359.113 249.198,361.547 239.363,353.202C245.484,338.315 260.359,332.783 287.011,339.837C263.638,330.401 243.865,329.783 231.949,348.197C223.671,360.988 207.958,369.331 187.987,370.361C182.202,370.66 176.643,370.008 168.706,370.321C156.249,370.811 144.674,378.802 136.165,386.397C126.313,395.191 94.401,400.767 85.408,387.894C81.494,382.292 74.503,380.763 68.082,381.095C60.044,381.511 53.716,377.731 48.431,374.895C20.733,360.032 1.175,350.883 -4.258,331.849C-8.24,317.899 -6.699,304.806 -0.465,292.975C7.244,278.342 21.293,267.81 41.917,260.579C63.579,252.985 84.25,242.119 96.683,214.227C100.238,206.251 105.124,199.442 118.657,187.355C133.593,174.014 137.556,174.436 148.812,160.479C157.243,150.025 155.101,141.743 147.517,135.953C141.573,131.416 137.694,126.75 136.229,122.429C130.578,105.763 140.706,97.633 158.583,93.695C138.2,103.761 137.796,115.87 157.913,129.58C163.03,133.067 170.364,154.724 157.397,168.725C149.802,176.926 140.686,183.333 133.918,188.553C118.585,200.378 106.242,219.137 103.972,224.923C96.137,244.891 79.37,256.12 63.667,263.727C50.348,270.179 46.116,269.686 30.065,280.466C3.091,298.581 1.58,320.929 10.443,335.189C12.33,320.378 25.543,312.742 48.604,311.345C66.496,312.26 72.601,319.989 72.77,331.147C72.076,334.418 70.774,335.886 68.973,335.871C67.107,335.857 65.021,339.546 65.523,339.986C66.192,340.57 68.224,339.26 70.625,339.089C82.324,337.928 94.43,350.38 86.131,364.335C99.547,375.987 115.26,376.571 133.102,364.8L142.615,356.802C148.479,348.521 163.309,344.916 180.34,349.642C192.069,353.116 202.451,353.056 211.443,349.348C220.023,345.81 223.029,343.832 227.452,340.467C231.848,336.861 237.561,333.747 242.565,331.789L261.866,327.667C253.037,322.729 236.487,326.5 232.946,328.425C228.951,330.596 219.77,338.43 214.847,340.792C204.509,345.751 188.14,347.057 174.294,341.889C162.484,337.479 149.822,340.292 140.7,348.733C121.832,368.341 105.126,372.54 90.859,359.359C96.028,348.036 91.673,339.103 76.804,332.808C86.631,318.879 122.33,331.08 118.429,345.95C122.42,345.436 126.464,345.567 131.869,346.266C133.672,345.633 133.993,343.661 132.2,342.557C120.509,335.353 113.434,325.288 100.921,320.727C105.959,320.323 110.893,320.001 114.804,321.865C115.416,322.157 115.803,322.744 117.666,322.01C129.597,312.044 147.158,316.193 167.626,327.632C164.606,321.079 156.546,317.546 140.222,312.859C125.202,308.547 119.24,268.406 164.464,267.754C159.691,248.933 177.981,236.073 207.75,226.178C196.742,235.619 189.235,243.081 191.086,247.711C198.588,236.483 213.991,228.25 236.346,222.653C224.032,229.362 215.521,237.267 211.931,246.72C221.75,236.144 239.841,229.727 261.125,224.916C249.398,231.209 240.924,237.675 239.362,244.505C247.847,237.839 257.694,234.57 268.657,234.078C262.148,239.135 258.919,243.94 258.402,248.536C269.78,234.202 282.922,230.589 297.704,236.942C280.592,245.49 275.548,255.919 275.743,267.164C280.408,254.407 288.94,243.817 306.241,238.144C326.355,231.577 340.244,222.393 344.725,209.253C346.343,202.1 344.396,194.332 345.587,187.381C348.274,181.202 355.444,178.485 359.997,185.836C363.306,192.418 363.576,198.216 363.378,203.44C386.18,200.113 400.826,185.909 406.698,160.003C407.16,148.832 407.378,130.944 408.226,125.048C410.863,106.71 434.771,90.017 456.248,86.716C440.253,94.47 427.274,116.361 427.148,131.367C427.041,144.174 428.56,153.693 427.529,163.818C424.501,193.544 413.127,211.911 389.801,224.608C379.803,230.05 369.281,231.897 354.298,246.634C348.704,252.136 337.883,259.092 324.554,265.828C336.636,263.424 348.298,258.538 360.288,246.731C366.116,240.992 373.811,235.235 383.461,232.474C407.128,225.704 424.697,195.998 430.349,176.872C450.616,175.506 476.595,162.044 482.811,132.785C487.063,112.771 497.764,102.642 515.065,101.4C506.453,105.634 501.665,112.507 504.081,124.355C505.623,131.921 505.291,139.505 504.234,146.693C506.872,148.523 530.717,145.855 536.959,142.956C543.873,139.746 559.831,138.314 574.736,137.85C629.493,136.146 651.254,103.935 656.501,74.178C668.743,120.584 643.705,158.219 589.332,161.729C571.964,162.85 558.12,158.368 541.445,170.164C535.031,174.701 529.041,176.48 523.398,174.125C515.479,170.821 497.616,176.464 479.841,189.077C466.709,198.395 459.088,205.165 442.404,208.482C433.591,210.234 417.225,220.827 409.716,232.528C397.155,252.102 377.458,267.922 352.315,272.629C347.992,273.438 333.783,278.109 326.323,285.502C318.091,293.661 300.952,298.795 289.012,302.589C283.838,304.233 273.272,306.152 261.959,302.091C254.843,299.537 237.41,305.306 236.64,313.329C246.248,306.417 254.483,306.713 263.385,309.526C273.445,312.705 282.555,314.174 290.694,310.578C298.595,307.086 306.139,305.105 312.975,305.507C306.773,308.096 296.545,315.789 287.711,328.515C307.481,309.114 333.685,305.244 363.38,309.799C346.358,303.447 333.231,302.151 323.024,304.645C331.389,290.078 347.05,282.666 367.363,279.817C374.249,278.851 395.066,264.512 407.398,245.716C418.093,229.415 433.118,217.673 469.943,210.219C461.621,216.756 455.123,222.635 452.223,227.215C458.065,226.509 471.838,216.127 486.305,204.9C499.213,194.883 525.25,187.137 551.912,190.276C521.412,194.618 499.141,205.075 486.543,222.719C501.856,209.256 524.831,202.852 560.691,209.031C593.825,214.74 619.719,209.088 636.73,185.8C619.581,221.092 595.097,227.976 552.48,225.283C529.291,223.817 508.727,229.201 493.1,238.248C477.394,247.34 459.706,256.571 441.754,256.092C424.469,255.631 399.829,273.599 391.313,295.893C405.292,277.55 424.125,268.908 445.794,265.932C455.347,264.62 466.521,260.344 474.738,254.327C469.518,259.833 465.417,265.428 461.687,270.444C455.442,278.842 448.64,283.749 441.68,287.669C457.501,283.679 465.853,275.996 474.065,267.82C491.704,250.259 503.325,241.164 531.489,238.212C538.154,237.513 544.892,237.607 552.805,234.163C558.739,231.581 564.314,229.093 571.632,229.272C554.238,236.102 540.743,243.186 532.758,253.515C538.48,249.905 547.061,247.955 561.639,249.994C572.159,251.466 582.394,254.109 591.621,248.619C642.212,218.519 686.625,234.426 701.93,284.708C681.705,255.288 648,235.38 620.807,256.057C609.307,264.802 609.773,278.242 561.743,274.99C516.723,271.942 486.467,279.205 475.082,301.771C492.859,285.459 517.335,277.952 552.438,284.412C575.869,288.724 587.598,288.355 603.148,286.254C616.605,284.435 629.487,285.855 641.301,292.5C652.978,299.067 665.973,315.427 669.453,328.055C653.294,308.779 633.691,297.539 608.357,299.677C587.826,301.409 565.834,299.121 543.701,297.932C585.657,304.726 601.354,317.755 623.323,343.292C641.931,364.92 676.267,368.292 704.551,342.982C682.597,380.301 644.185,377.305 601.765,345.679C565.893,318.935 520.932,316.663 493.641,331.587C473.682,342.501 450.213,345.514 423.903,342.251C415.516,341.211 395.1,344.656 390.346,347.728C417.172,316.287 448.458,313.725 482.047,326.081C455.949,310.461 415.74,308.169 392.479,329.903C365.237,355.357 345.41,364.7 328.515,358.755C338.821,364.57 350.091,365.429 367.177,359.382C360.39,364.037 354.433,368.705 349.64,373.392C362.251,368.305 371.274,363.625 375.291,359.514C381.14,353.526 401.751,347.027 410.023,345.558C422.467,343.348 433.727,344.675 444.557,347.543C458.928,351.348 480.396,349.411 486.518,346.361C517.724,330.817 557.918,321.263 601.867,357.006C621.789,373.208 637.879,383.213 652.719,383.888C618.985,387.661 610.934,380.894 594.248,371.026C569.33,356.289 544.583,352.264 519.467,369.497C544.731,356.704 585.347,374.082 604.037,408.891C620.532,439.614 625.386,445.704 639.731,453.077C630.114,454.787 605.483,436.576 590.175,422.627C574.79,408.609 554.059,411.669 535.563,424.267C566.168,423.679 601.452,439.739 612.184,476.827C616.9,493.125 620.895,499.011 631.604,506.39C618.505,503.269 608.89,493.19 599.064,476.614C584.355,451.801 560.621,448.317 529.43,462.457C558.994,463.335 580.282,475.793 583.834,513.061C584.95,524.775 592.603,536.269 619.352,551.395C608.253,549.818 597.328,546.673 586.426,542.344C569.105,535.466 560.949,522.112 560.542,513.324C560.293,507.95 557.109,505.989 552.299,505.903C545.309,505.777 538.56,506.798 533.681,509.855C549.359,518.239 555.732,531.585 553.482,549.529C553.192,551.842 554.12,555.33 556.495,556.226C558.852,557.114 568.961,574.431 570.843,597.672C572.077,612.913 578.467,623.253 586.495,630.366C571.965,623.675 560.659,611.628 554.798,589.278C550.675,573.553 531.191,560.002 509.502,567.163C540.446,579.912 553.802,612.993 534.256,643.511C543.171,602.753 509.162,583.784 483.753,601.579C506.739,609.018 521.17,621.486 514.298,646.479C507.458,671.359 509.895,677.931 529.762,689.273C503.919,686.774 493.569,669.237 494.939,646.036C495.881,630.107 477.673,626.038 458.399,630.151C472.906,636.886 480.533,648.245 474.713,673.225C470.736,690.296 475.049,700.911 484.631,707.42C467.61,701.862 460.619,687.226 457.894,667.725C456.383,656.906 439.854,652.18 424.468,659.647C443.843,662.205 448.042,679.511 444.461,704.376C437.774,682.44 424.053,674.355 402.665,681.363C416.047,683.503 425.681,691.134 428.399,708.902C429.217,714.975 431.182,720.2 434.195,724.697C418.849,705.948 402.889,696.491 385.617,708.209C391.485,707.225 403.677,715.644 407.641,720.531C411.639,726.696 416.321,730.601 421.383,733.251C413.822,733.275 408.475,728.966 403.44,728.37C385.437,726.237 374.469,729.602 366.634,746.988C376.217,734.275 391.189,733.447 409.01,738.9C426.308,744.193 436.542,741.711 444.991,737.09C436.619,746.076 426.167,750.483 412.218,753.685C399.132,756.689 391.651,766.602 391.103,781.154C398.532,772.828 409.334,766.2 425.416,761.767C431.947,759.967 446.179,752.036 459.108,743.257C440.464,757.939 429.186,773.418 429.29,798.79C434.704,797.072 440.771,789.573 447.38,777.28C452.001,768.682 458.391,760.054 466.635,754.459C472.395,750.55 483.55,735.241 495.666,730.921C482.019,742.871 473.227,763.504 475.663,790.501C476.04,794.678 478.79,794.912 480.192,792.436C482.064,789.131 484.352,784.43 487.935,775.012C490.632,766.491 495.042,761.309 500.241,757.662C504.726,754.516 513.707,740.543 516.395,733.936C521.389,721.662 530.107,708.42 536.424,705.461C532.671,711.64 529.774,723.248 528.859,737.652C528.004,751.127 523.949,774.025 525.749,782.006C541.8,768.256 551.372,738.039 559.437,704.378C563.913,685.694 571.505,670.052 580.944,664.646C575.097,672.549 572.389,688.265 575.335,708.625C579.259,735.754 580.327,748.427 576.418,757.567C590.363,746.876 598.877,729.135 597.685,703.403C596.167,670.62 599.337,638.772 605.914,629.351C604,646.528 608.253,664.005 623.476,682.017C632.791,693.039 645.651,684.058 646.157,674.408C646.511,667.668 643.722,661.277 640.089,655.501C621.551,626.021 620.477,592.449 625.825,571.442C627.854,594.569 644.357,618.68 656.004,624.7C669.122,631.481 676.183,621.533 675.554,612.664C674.939,604.003 668.012,597.115 663.553,590.622C640.448,556.974 643.363,525.237 651.998,499.01C648.312,519.154 657.374,537.947 673.473,555.994C684.596,568.463 702.6,563.456 695.241,541.94C689.383,524.812 661.135,511.817 676.206,440.107C676.489,457.591 680.786,475.456 700.008,494.736C711.355,506.117 723.088,496.74 721.893,483.923C721.45,479.176 714.47,466.603 708.366,459.654C698.326,448.226 692.032,409.801 710.703,364.95C705.292,390.195 710.035,411.696 724.906,429.463C736.547,443.371 747.625,434.829 749.298,421.881C750.202,414.884 742.114,401.996 736.432,393.077C720.954,368.781 737.944,314.1 756.984,300.49C745.929,317.291 737.226,351.134 760.312,374.996C766.156,381.035 781.741,377.884 780.786,363.362C779.741,347.476 758.523,331.123 785.933,287.046C799.924,264.547 808.933,257.289 817.365,253.075C800.824,268.757 794.938,292.025 801.77,324.349C804.829,338.822 820.8,334.022 819.759,323.577C815.56,281.468 834.642,252.351 871.432,230.021C850.131,249.383 843.764,270.27 849.328,299.507C851.108,308.859 862.561,306.654 862.712,299.811C863.638,257.851 892.047,219.48 927.907,209.22C903.969,224.31 890.422,245.092 895.07,278.399C896.103,285.798 904.813,286.176 907.642,277.14C920.909,234.759 945.264,208.548 987.824,200C956.79,215.679 943.22,234.32 943.996,255.394L944.141,262.911C944.28,273.073 947.894,268.696 951.257,263.026C982.118,210.98 1025.87,200.579 1059.72,205.685C1016.89,211.362 1001.87,231.4 995.112,258.615C993.9,263.492 995.142,263.756 998.214,260.527C1045.77,210.551 1095.59,212.407 1115.07,221.184C1078.18,218.368 1058.61,236.7 1049.62,257.903C1046.62,264.98 1048.06,264.223 1053.29,260.09C1100.16,223.004 1143.35,231.41 1166.51,246.769C1132.8,241.405 1110.53,244.837 1095.58,266.062C1094.28,267.909 1094.78,269.063 1097.08,267.979C1134.27,250.442 1173.51,261.522 1197.06,276.247C1173.18,272.835 1151.6,273.027 1136.45,283.241C1133.83,285.003 1134.75,285.795 1138.53,285.487C1170.21,282.903 1194.28,290.147 1219.35,305.872C1200.77,301.382 1182.6,300.7 1169.75,305.951C1165.05,307.872 1166.02,308.747 1170.57,308.959C1190.49,309.887 1218.89,322.004 1240.63,333.108C1220.62,328.935 1200.15,329.021 1195.55,331.255C1190.51,333.696 1192.65,335.429 1195.78,335.779C1218.7,338.338 1242.06,358.501 1251.71,360.238C1242.26,360.634 1237.29,359.041 1229.26,357.832C1222.61,356.828 1215.66,355.978 1212.49,356.198C1209.38,356.415 1208.57,357.88 1213.16,359.749C1234.45,368.432 1237.26,372.419 1258.42,380.168C1249.63,381.428 1236.23,381.106 1224.17,380.076C1227.25,385.621 1260.21,397.493 1270.78,395.262C1267.65,399.2 1257.26,402.251 1240.95,404.581C1257.24,411.247 1271.9,411.875 1285.16,407.339C1278.71,415.811 1269.38,420.822 1256.84,421.992C1271.81,426.157 1286.32,425.313 1300.05,415.749C1291.62,429.322 1282.59,437.295 1272.88,438.997C1287.39,441.646 1301.88,435.798 1316.36,426.36C1311.65,438.076 1304.27,447.209 1292.22,451.835C1305.82,452.972 1319.41,446.169 1333,434.526C1331.21,445.376 1325.6,454.689 1315.4,462.149C1320.26,463.508 1335.69,455.384 1355.02,444.413C1350.58,454.902 1345.53,464.202 1339.89,472.348C1354.5,464.717 1367.78,452.554 1383.85,441.749C1380.71,445.674 1377.52,450.073 1374.61,459.161C1372.91,464.499 1372.42,471.866 1369.91,476.102C1381.52,469.875 1389.53,449.479 1407.87,439.045C1406.06,441.561 1401.55,447.04 1401.3,449.928C1400.75,456.288 1401.6,465.98 1400.82,472.759C1405.01,471.868 1409.67,462.848 1414.61,449.19C1417.2,442.806 1420.63,437.326 1425.42,433.301C1424.34,441.62 1425.52,446.344 1426.69,451.564C1427.79,456.501 1428.03,459.874 1428.25,461.528C1428.65,464.54 1430.56,463.992 1432.06,461.317C1435.84,454.55 1436.47,446.254 1436.3,437.562C1436.17,431.581 1437.13,427.872 1439.43,426.313C1440.82,430.868 1442.84,435.114 1446.5,438.544C1450.32,442.117 1452.57,445.836 1453.46,449.139C1456.26,444.135 1457.8,436.848 1455.2,434.328C1451.37,430.618 1448.2,426.796 1445.63,422.874C1443.61,419.796 1444.09,418.007 1447.33,418C1461.76,417.971 1465.78,423.569 1468.76,429.429C1469.74,420.018 1468.43,411.078 1449.06,411.357C1445.92,411.402 1445.13,405.796 1450.08,403.478C1460.18,398.741 1467.35,400.177 1473.87,404.408C1474.07,394.881 1465.28,391.872 1452.56,396.03C1448.73,397.28 1447.01,396.58 1447.81,391.869C1448.63,387.059 1460.46,380.751 1473.38,383.571C1471.51,378.98 1463.12,371.54 1449.15,382.769C1444.93,386.163 1444.5,382.041 1444.32,376.84C1444.24,374.224 1452.42,366.024 1468.31,365.654C1458.85,360.933 1449.43,359.679 1440.2,369.147C1435.46,374.01 1433.61,374.347 1433.65,367.951C1433.7,360.236 1443.07,353.233 1459.68,350.811C1443.55,348.972 1440.27,351.549 1436.99,353.166C1434.34,354.476 1425.08,368.941 1409.39,364.781C1418.22,363.578 1422.14,356.122 1426.24,350.405C1428.9,346.69 1432.57,344.575 1437.17,343.911C1427.6,342.503 1422.43,346.343 1417.27,351.948C1411.69,358.022 1395.04,360.592 1389.91,358.061C1401.9,353.5 1408.55,348.927 1410.39,338.304C1400.08,350.555 1372.18,354.302 1361.37,346.446C1377.12,346.899 1388.94,343.917 1391.94,333.24C1373.69,340.541 1360.66,339.351 1350.9,332.847C1364.25,332.734 1374.05,330.234 1376.07,322.5C1360.75,327.544 1349.51,325.44 1340.63,319.203C1351.7,318.115 1360.03,315.654 1363.43,310.724C1348.99,312.275 1337.51,309.667 1328.96,302.949C1345.46,302.288 1350.97,301.1 1353.32,297.218C1339.81,296.998 1329.44,291.955 1323.79,285.124C1335.81,285.286 1347.74,285.439 1347.42,284.461C1335.36,281.35 1328.52,275.546 1323.02,269.051C1331.02,269.876 1339.08,270.737 1343.84,269.389C1335.59,264.77 1328.29,258.551 1322.35,250.02C1328.27,249.775 1335.67,251.908 1340.83,255.926C1342.87,257.507 1344.15,255.631 1343.01,254.711C1335.16,248.392 1330.39,241.17 1326.31,233.747C1329.57,232.069 1336.71,237.408 1344.59,240.578C1337.8,228.021 1335.78,223.25 1330.72,216.529C1336.54,216.026 1342.02,218.717 1347.23,224.012C1345.9,217.767 1341.47,210.328 1338.4,203.993C1337.05,201.196 1339.67,199.671 1343.12,201.483C1347.33,203.691 1351.79,206.64 1354.62,208.879C1352.79,203.47 1348.93,194.398 1349.02,190.823C1349.14,185.736 1349.94,183.17 1351.47,182.52C1353.49,187.279 1359.75,193.244 1361.96,194.028C1362.52,191.908 1361.53,187.333 1360.41,182.975C1358.6,175.864 1360.19,171.032 1364.78,168.207C1363.12,172.536 1365.51,176.501 1372.59,180.042C1372.29,175.156 1372.47,169.84 1373.18,164.042C1373.67,160.059 1376.56,157.359 1379.48,155.376C1377.1,161.035 1377.17,165.533 1383.35,167.147C1383.86,156.417 1387.33,149.156 1393.69,145.26C1392.09,149.096 1392.03,153.861 1393.43,157.513C1397.57,148.87 1402.93,142.985 1409.88,138.715C1407.38,143.497 1406.2,147.416 1407.49,149.703C1412.06,144.115 1416.38,140.103 1422.95,135.011C1423.9,134.273 1427.01,133.405 1428.93,133.916C1424.67,137.161 1422.6,140.548 1423.07,144.102C1427.13,139.451 1431.82,135.591 1438.31,134.002C1439.93,133.606 1440.78,132.758 1439.96,131.579L1438.25,129.509C1440.82,131.336 1446.43,131.81 1450.28,132.263C1446.2,133.687 1442.52,136.64 1440.16,139.718C1446.73,139.578 1452.62,134.235 1459.37,132.438C1456.82,130.887 1455.16,128.994 1454.37,126.775C1460.08,130.089 1464.8,131.957 1468.58,132.451C1465.96,135.514 1462.06,136.427 1460.44,137.901C1458.24,139.897 1459.13,141.394 1462.16,139.834C1466.74,137.477 1470.89,136.423 1474.94,135.685C1477.36,135.246 1478.7,133.561 1476.03,132.163C1473.85,131.02 1472.63,129.557 1472.46,127.749C1474.32,128.855 1479.29,131.441 1483.72,134.738C1485.88,136.343 1485.65,139.873 1483.45,140.457C1478.52,141.762 1478.15,143.686 1481.82,142.876C1486.78,141.781 1490.62,141.101 1491.81,140.947C1494.09,140.651 1495.26,136.194 1489.64,130.75C1492.49,132.46 1495.43,134.393 1499,137.981C1503.84,142.845 1502.22,144.902 1497.69,145.448C1495.69,145.688 1494.36,148.15 1497.93,148.447C1502.87,148.857 1505.91,149.184 1508.29,149.023C1510.41,148.879 1511.92,147.558 1511.27,144.681C1510.74,142.347 1509.48,140.9 1508.18,139.491C1517.03,145.67 1523.79,152.053 1513.99,156.875C1511.69,158.003 1511.67,159.23 1514.24,159.057C1517.89,158.812 1519.91,158.677 1520.82,158.62C1524.3,158.397 1526.3,155.669 1525.46,152.705C1524.95,150.927 1523.89,149.14 1522.64,147.349C1525.39,149.412 1528.07,151.673 1529.76,156.995C1531.43,162.273 1529.32,167.458 1525.86,170.23C1528.52,170.964 1530.56,171.119 1533.08,170.864C1535.01,170.669 1535.68,166.513 1536.25,162.409C1541.97,167.424 1541.7,173.767 1537.65,180.947C1536.55,182.907 1536.94,184.175 1538.47,184.228C1544.3,184.428 1545.07,181.082 1545.95,174.547C1549.67,179.65 1549.1,186.395 1543.53,195.065C1541.85,197.668 1541.84,198.705 1544.5,197.803C1547.9,196.65 1551.44,192.72 1552.99,189.092C1553.06,198.931 1550.23,203.857 1544.04,206.917C1542.26,207.796 1542.8,208.712 1545.01,209.656C1546.66,210.361 1552.25,207.74 1555.34,203.697C1556.77,207.553 1552.02,212.612 1543.83,218.077C1542.15,219.199 1542.26,219.875 1544.08,220.123C1547.34,220.568 1552.46,216.195 1555.15,213.904C1553.58,219.615 1549.37,224.39 1545.6,224.913C1542.9,225.286 1542.91,226.466 1547.23,229.165C1554.08,233.454 1563.29,241.204 1579.31,226.412C1589.47,213.538 1586.67,199.234 1576.98,184.187C1549.41,141.389 1504.35,112.528 1464.73,103.282C1430.12,95.208 1396.27,100.012 1374.38,114.184C1361.09,122.785 1359.25,142.962 1309.56,129.035C1298.48,125.929 1281.16,126.862 1269.65,130.915C1237.18,142.342 1216.48,140.784 1201.93,128.734C1196.18,123.975 1187.72,108.584 1185.6,98.371C1184.75,94.278 1172.73,80.259 1156.48,84.236C1158.12,82.346 1161.98,81.644 1168.59,80.996C1175.71,80.298 1191.35,92.033 1194.65,105.14C1197.54,113.856 1201.23,119.891 1205.71,123.289C1220.03,134.15 1232.66,131.623 1243.19,126.211C1249.92,122.755 1259.39,119.833 1263.95,117.835C1280.42,110.613 1296.42,111.789 1312.15,117.799C1321.12,121.227 1329.78,123.205 1338.02,116.721C1346.35,110.169 1352.31,103.196 1360.01,97.337C1385,78.313 1421.38,74.875 1454.44,83.075C1484.71,90.584 1510.1,102.407 1532.89,118.654C1552.29,132.486 1570.46,149.363 1583.45,164.263C1598.19,181.17 1608.69,200.45 1607.75,216.254C1605.73,250.611 1576.88,261.767 1550.15,258.341C1514.06,253.716 1509.17,229.592 1509.45,223.782C1510.32,222.957 1511.74,221.756 1513.63,219.085C1511.87,218.785 1510.39,219.207 1507.43,219.611C1508.55,216.613 1510.12,213.107 1512.45,211.987C1513.02,210.907 1512.46,210.201 1511.03,209.786C1509.06,210.525 1507.13,212.659 1506.66,213.423C1506.16,210.204 1506.59,207.156 1510.55,205.503C1512.4,204.729 1511.49,202.127 1509.7,202.549C1508.19,202.906 1505.14,205.346 1504.02,206.584C1502.98,203.931 1504.58,199.383 1508.58,197.537C1509.21,196.11 1508.77,194.788 1506.66,195.349C1504.63,195.89 1502.59,196.551 1499.26,198.796C1499,195.859 1499.52,192.849 1503.52,189.515C1503.68,188.311 1503.03,187.451 1500.93,187.431C1495.7,187.382 1494.4,192.989 1494.4,192.989C1492.03,193.397 1489.87,190.166 1490.99,187.542C1492.17,184.787 1492.47,184.561 1495,183.153C1490.14,181.479 1486.18,183.539 1485.83,188.134C1484.82,188.492 1483.67,188.661 1481.93,188.076C1479.08,185.942 1479.03,183.463 1481.19,180.713C1482.57,179.581 1483.18,177.949 1483.09,175.864C1475.98,178.78 1473.38,181.877 1474.55,184.009C1472.93,184.489 1471.99,184.475 1470.14,183.79C1468.68,180.573 1470.63,175.192 1472.55,173.902C1465.26,173.892 1463.15,179.474 1463.55,183.34C1462.03,184.623 1459.77,185.185 1458.5,182.458C1457.11,179.479 1457.18,176.093 1458.98,173.137C1452.84,171.606 1449.53,178.851 1452.86,184.953C1451.74,185.298 1449.61,183.492 1448.22,186.533C1445.5,185.522 1444.98,180.068 1444.33,175.35C1437.85,177.668 1439.16,183.523 1442.37,188.557C1440.69,189.86 1438.39,189.587 1437.25,191.741C1434.5,189.034 1432.68,185.651 1433.72,180.216C1431.24,180.591 1429.85,181.666 1428.85,182.996C1427.24,184.728 1428.9,191.099 1431.23,195.918C1428.9,196.112 1427.01,198.107 1425.93,199.89C1425.51,196.376 1424.91,192.875 1421.72,189.551C1420.12,187.884 1417.85,189.379 1417.58,192.206C1417.33,194.764 1422.99,204.445 1418.15,208.177C1416.38,204.001 1411.82,199.559 1408.36,197.563C1407.49,197.066 1405.64,199.532 1407.12,201.529C1414.28,211.178 1414.61,213.617 1411.27,217.236C1407.51,211.958 1403.23,208.103 1397.1,209.3C1405,214.882 1411.8,222.387 1407.64,226.32C1404.12,221.7 1397.47,219.715 1392.04,222.353C1401.48,226.727 1406.99,231.908 1406.71,236.123C1401.22,234.625 1392.78,234.036 1390.19,235.327C1388.46,236.187 1389.74,239.158 1391.87,239.03C1399.66,238.565 1406.87,241.096 1406.99,247.128C1401.33,247.06 1396.32,247.838 1392.11,249.653C1390.64,250.289 1391.65,253.692 1393.94,253.359C1402.84,252.061 1408.28,253.987 1410.12,256.757C1404.68,258.513 1399.45,262.051 1395.98,265.465C1402.12,263.616 1408.24,263.37 1414.33,264.308C1410.02,267.46 1406.33,270.622 1404.51,273.815C1411.06,274.779 1415.87,270.464 1424.76,269.242C1420.71,275.13 1416.86,279.114 1413.13,281.987C1419.1,282.136 1427.92,276.137 1440.3,274.122C1435.2,278.143 1431.07,284.63 1426.62,289.154C1440.58,281.138 1451.26,278.398 1460.08,278.663C1453.46,281.121 1447.54,285.327 1442.59,291.994C1452.68,286.363 1466.27,284.427 1481.73,284.46C1472.71,286.385 1465.42,289.905 1461.78,296.798C1478.86,291.175 1496.76,289.899 1511.25,294.893C1497.01,296.956 1486.6,299.918 1484.27,305.194C1500.9,300.042 1516.2,303.097 1529.15,307.882C1514.05,307.1 1504.01,311.642 1502.03,317.375C1519.65,314.402 1532.48,316.238 1541.21,322.182C1528.76,321.28 1520.89,324.663 1515.79,330.619C1534.83,329.821 1548.2,332.791 1555.64,339.705C1540.46,339.027 1531.35,341.695 1527.02,347.001C1546.88,346.27 1559.24,351 1563.51,362.476C1552.56,355.716 1543.55,355.53 1536.06,363.349C1551.51,362.388 1562.95,368.983 1569.1,385.53C1559.95,377.329 1549.92,372.541 1538.96,379.419C1558.54,384.674 1565.47,393.82 1566.38,405.771C1558.77,397.002 1550.79,393.674 1542.47,395.582C1541.74,395.749 1541.79,397.291 1542.43,397.623C1558.14,405.663 1563.16,415.686 1561.61,426.932C1559.16,421.016 1549.79,414.598 1545.2,413.596C1542.45,412.993 1540.78,414.859 1542.23,416.679C1545.79,421.177 1549.01,424.635 1552.1,427.73C1557.42,433.06 1557.04,443.867 1554.28,451.269C1552.08,444.939 1548.16,439.258 1541.18,434.943C1539.33,433.802 1538.56,434.794 1538.37,437.615C1535.29,483.783 1500.58,508.654 1479.16,528.068C1470.31,536.082 1452.48,544.577 1445.81,547.128C1446.64,524.437 1437.57,509.288 1424.16,499.689C1415.98,493.833 1406.17,490.043 1396.02,487.866C1335.69,484.163 1335.28,555.74 1375.81,557.928C1403.38,559.416 1419.49,539.908 1407.37,521.394C1399.91,510.005 1392.64,514.773 1392.64,514.773C1394.6,515.02 1403.44,528.181 1392.16,536.067C1387.64,539.23 1366.81,541.524 1363.27,525.453C1361.04,483.506 1439.18,497.553 1436.14,547.679C1434.41,576.226 1501.58,656.034 1560.63,584.093C1582.95,556.891 1580.04,505.975 1612.73,533.499C1584.92,528.764 1597.38,563.054 1618.59,553.46C1629.92,548.33 1642.89,532.351 1644.58,503.156C1662.39,576.206 1606.14,566.632 1587.34,591.185C1532.97,662.202 1473.26,641.802 1448.31,615.169C1417.29,582.047 1425.66,561.793 1404.15,567.679C1391.9,571.031 1392.88,595.501 1422.58,594.774C1390.96,605.469 1357.09,582.936 1339.3,568.633C1314.72,548.875 1315.56,507.575 1341.22,490.429C1338.98,491.257 1336.99,492.166 1335.29,493.141C1311.27,506.942 1301.11,525.746 1311.15,553.051C1305.21,552.405 1298.76,549.938 1291.95,546.306C1293.24,528.364 1288.94,516.788 1283.9,506.057C1285.77,513.092 1286.48,520.177 1286.57,526.536C1287.33,531.668 1287.07,537.037 1285.53,542.535C1285.52,542.56 1285.52,542.586 1285.52,542.611C1285.51,542.609 1285.51,542.608 1285.51,542.606C1284.72,545.379 1283.61,548.184 1282.14,551.008C1281.22,552.775 1279.92,554.799 1272.74,561.118C1271.09,562.697 1269.45,564.159 1267.81,565.457C1266.88,566.197 1266.45,566.37 1266.06,566.283C1262.56,567.986 1261.22,566.306 1259.53,569.767C1257.24,574.473 1253.27,586.584 1254.78,591.296C1256.73,597.435 1255.03,601.16 1250.78,605.536C1249.77,606.575 1251.74,606.43 1252.71,606.179C1256.42,605.217 1259.04,605.975 1260.87,608.786C1262.01,607.747 1264.58,606.268 1265.36,605.734C1267.09,604.551 1274.25,603.041 1276.8,601.721C1278.75,600.714 1280.68,598.349 1279.72,594.174C1278.62,589.426 1292.38,584.754 1295.27,585.43C1297.22,585.885 1298.77,585.289 1299.49,587.231C1299.86,588.224 1297.92,589.94 1298.8,589.788C1308.86,588.047 1313.43,594.477 1317.89,601.067C1314.03,599.44 1310.2,597.755 1305.08,598.275C1303.27,598.46 1302.31,600.104 1302.99,601.14C1306.71,606.888 1302.32,611.101 1292.1,609.62C1289.98,609.312 1287.78,609.784 1286,611.262C1281.34,615.14 1284.75,620.034 1294.92,622.912C1297.15,623.543 1298.04,621.267 1298.12,620.213C1298.21,618.992 1303.94,614.678 1305.28,614.391C1310.69,613.233 1315.34,614.191 1319.68,618.434C1321.96,620.655 1322.32,622.278 1319.01,624.462C1317.85,625.227 1319.37,626.832 1320.68,627.223C1323.12,627.952 1325.43,629.594 1326.62,632.625C1332.59,647.843 1328.29,662.427 1316.63,676.557C1321.46,664.138 1319.31,653.489 1313.07,643.493C1304.4,652.243 1292.52,644.818 1291.95,635.651C1286.65,639.476 1281.51,639.359 1276.53,635.92C1270.98,632.1 1263.5,633.634 1264.81,644.649C1265.13,647.339 1266.4,649.166 1269.15,649.627C1273.69,650.386 1280.82,655.25 1280.52,662.869C1280.29,668.825 1277.73,670.496 1273.26,668.658C1276.52,672.252 1275.93,676.542 1270.92,681.125C1256.3,694.497 1221.58,693.45 1211.57,674.634C1224.43,685.97 1246.69,683.973 1251.48,669.292C1246.29,668.142 1241.82,662.538 1242.45,658.049C1242.7,656.245 1242.43,654.193 1246.18,649.127C1246.3,649.013 1246.41,648.873 1246.5,648.704C1246.39,648.847 1246.28,648.989 1246.18,649.127C1245.19,650.076 1239.75,647.452 1239.51,646.588C1238.31,642.186 1239.9,638.085 1238.33,632.012C1233.35,612.823 1216.7,618.311 1216.29,622.154C1213.12,619.484 1203.44,621.18 1204.19,626.519C1204.85,631.137 1188.81,638.22 1186.46,625.84C1165.3,621.941 1173.2,658.527 1192.44,664.817C1159.56,662.036 1143.09,613.51 1180.82,610.166C1170.93,598.42 1201.59,591.486 1199.93,605.824C1202.46,608.504 1205.92,604.253 1207.54,605.748C1210.11,608.123 1215.36,606.245 1220.54,600.149C1221.66,598.838 1229.33,595.955 1231.52,592.608C1236.2,585.447 1238.46,577.512 1236.42,568.979C1235.1,563.437 1233.28,556.436 1227.84,551.662C1222.77,547.207 1217.66,537.644 1214.16,530.153C1213.98,529.925 1213.88,529.728 1213.87,529.537C1211.39,524.189 1209.79,520.036 1209.69,519.82C1205.45,510.662 1206.89,493.531 1213.48,487.138C1214.1,486.538 1214.75,485.983 1215.43,485.474ZM304.702,375.102C314.294,382.292 326.104,384.752 339.753,383.294C330.649,390.157 314.611,392.94 294.718,393.455C302.355,396.658 310.648,398.123 319.923,396.995C307.197,405.591 293.212,406.598 278.734,404.632C284.616,408.428 291.788,411.355 302.407,411.959C291.765,416.921 279.217,417.071 265.97,415.453C279.466,421.819 295.101,423.527 313.064,420.164C334.691,416.115 352.635,421.644 367.788,430.853C381.069,438.924 400.559,439.08 418.002,432.756C436.643,425.998 464.236,431.421 477.752,440.259C475.904,434.331 468.823,428.859 456.44,423.849C493.316,427.994 509.219,419.576 516.806,406.176C505.174,416.085 478.3,420.479 465.052,416.365C441.1,408.927 421.354,411.538 403.371,418.36C387.762,424.282 370.61,424.364 355.742,418.814C345.145,414.857 329.369,413.865 311.123,414.551C346.746,398.666 363.924,394.153 392.026,400.07C381.039,395.445 368.147,392.821 346.136,393.472C358.015,385.288 374.49,377.348 386.741,370.17C397.762,363.712 416.15,360.042 432.936,360.448C408.088,354.689 384.037,359.915 360.428,371.241C345.406,378.447 331.115,380.641 304.702,375.102ZM338.064,339.372C358.562,349.943 381.108,336.639 403.985,305.861C378.009,325.901 363.373,339.482 338.064,339.372ZM174.245,303.781C180.443,302.317 187.056,303.329 191.394,302.595C207.622,299.849 217.725,289.21 223.148,280.247C203.766,297.254 179.56,299.572 174.245,303.781ZM170.676,274.587C163.427,277.631 156.945,284.048 156.271,293.034C156.158,294.543 158.854,295.083 158.873,293.913C158.99,286.474 163.903,280.429 170.676,274.587ZM304.562,924.119C288.742,915.546 271.825,899.402 267.059,888.796C275.486,897.499 284.487,903.599 294.51,905.067C273.559,893.318 263.992,877.986 256.788,861.912C265.164,873.754 275.143,882.042 287.583,884.874C266.717,871.633 257.153,851.79 257.454,826.186C257.776,798.864 291.23,769.604 328.707,784.797C353.04,794.661 346.874,828.014 326.607,828.838C295.032,830.123 300.442,797.198 319.422,793.155C289.613,789.662 280.239,817.134 292.208,834.219C303.819,850.792 335.781,857.204 352.807,833.857C378.426,798.728 332.314,750.317 282.997,768.57C204.558,797.602 230.564,903.338 304.562,924.119ZM831.226,492.469C824.097,504.904 812.633,507.891 796,499.609C791.687,526.546 802.56,530.588 825.358,531.727C814.229,530.799 806.611,523.219 801.791,510.339C823.474,514.765 833.497,508.994 831.226,492.469ZM178.855,312.166C179.041,336.776 203.393,329.649 204.162,309.657C195.131,311.988 189.185,312.436 178.855,312.166ZM320.546,323.159C349.072,315.426 363.804,330.195 387.676,310.906C358.697,320.521 344.316,308.286 320.546,323.159ZM386.465,386.91C407.727,377.463 438.36,376.16 452.595,381.311C460.41,384.139 471.954,388.726 479.312,389.913C476.58,390.817 472.448,391.08 466.766,389.029C451.656,383.572 428.661,383.209 415.346,389.148C429.057,387.272 440.718,388.524 450.353,391.894C461.611,395.831 475.376,401.897 502.155,394.775C521.113,388.064 557.467,384.992 572.491,398.638C564.923,389.783 545.747,379.547 526.119,378.691C516.639,378.278 507.931,377.113 496.572,373.039C470.26,363.602 401.465,371.356 386.465,386.91ZM29.401,346.31C31.343,326.531 47.111,327.031 58.823,339.471C49.38,319.582 23.948,325.673 29.401,346.31ZM214.479,303.945C244.002,300.157 261.277,287.059 261.503,260.864C254.541,280.425 238.404,294.51 214.479,303.945ZM242.748,421.611C254.524,423.925 269.15,429.58 280.326,435.289C268.593,425.121 255.866,420.184 242.748,421.611ZM47.593,142.557C46.247,149.252 45.509,151.476 53.185,157.44C70.626,170.996 68.099,186.983 52.467,203.723C34.147,223.342 14.369,237.935 -4.113,253.849C-41.575,286.106 -29.915,327.063 -2.858,347.778C-5.087,349.906 -7.623,351.738 -10.479,353.261C-51.393,334.395 -49.063,275.923 -14.832,248.477C23.912,217.414 36.891,207.626 48.103,195.827C60.731,182.538 59.626,172.838 47.227,162.174C39.436,155.107 40.987,148.664 47.593,142.557ZM273.127,227.596C288.891,214.526 298.16,202.362 303.482,177.584C309.135,180.255 311.285,186.078 310.748,194.321C332.61,191.695 344.549,171.154 345.803,131.323C350.641,142.949 354.85,140.691 354.398,148.496C356.975,147.416 360.968,141.26 365.349,134.963C372.704,124.393 367.126,113.633 367.415,95.943C367.82,71.1 382.502,62.565 399.401,54.084C389.293,60.499 380.013,77.499 385.766,96.739C389.809,110.26 387.477,119.868 384.121,132.359C379.611,149.148 372.428,163.358 361.939,174.377C349.043,171.459 338.319,179.355 338.862,192.699C339.973,219.956 317.204,219.735 300.246,231.542C295.95,229.949 287.355,226.957 273.127,227.596ZM377.24,161.81C377.946,149.995 382.341,150.247 383.902,142.967C386.064,132.889 393.484,129.695 401.851,126.704C400.217,132.096 400.087,140.417 400.261,149.332C391.031,152.466 383.314,156.592 377.24,161.81ZM399.561,155.528C395.493,164.714 374.497,192.624 370.349,192.956C367.549,186.88 367.15,178.863 371.169,174.019C377.999,165.788 387.817,159.903 399.561,155.528ZM433.601,145.147C432.016,144.003 434.085,131.608 435.179,121.774C435.553,118.41 439.338,116.533 445.566,115.56C478.511,110.416 505.348,73.208 507.789,46.797C511.783,57.825 512.462,72.99 505.235,98.021C489.917,99.994 479.534,113.039 474.147,137.296C462.093,135.563 448.878,137.288 433.601,145.147ZM511.237,131.09L511.543,114.715C511.429,109.882 513.711,108.48 522.874,106.816C553.666,101.223 572.021,81.62 589.703,48.125C586.072,134.92 516.314,125.86 511.237,131.09ZM-19.082,413.068C-15.858,390.311 -31.52,370.748 -3.908,358.219C2.034,355.523 6.289,357.883 9.514,360.564C20.615,369.793 48.367,383.045 61.034,388.414C69.454,390.554 77.008,393.667 82.984,398.555C92.475,406.319 106.854,405.698 121.713,402.374C129.225,400.693 138.415,397.136 150.036,389.006C163.274,379.745 171.92,381.753 185.334,381.069C195.056,380.574 201.338,379.075 207.024,376.566C211.4,374.635 217.704,372.299 223.7,367.652C226.464,365.51 235.962,363.407 241.749,366.668C253.427,373.247 251.427,386.197 242.214,390.713C232.734,395.359 221.729,400.152 205.649,405.436C184.643,412.338 158.191,430.6 151.558,441.998C144.462,454.192 133.502,461.881 126.988,465.978C123.451,468.203 120.275,468.831 117.185,465.812L109.291,459.27C107.295,457.73 105.152,455.441 102.792,452.036C100.463,447.747 97.607,433.739 98.019,429.588C103.735,437.376 110.385,444.657 115.475,443.115C115.23,449.112 116.776,446.483 118.036,448.463C120.055,451.636 127.698,451.424 132.484,448.763C134.776,447.49 134.054,444.376 132.078,443.289C132.747,440.621 132.659,437.881 130.938,434.989C132.731,435.703 136.521,435.422 138.521,434.327C140.639,435 143.545,433.419 143.145,433.033C146.168,433.487 146.3,432.221 146.081,427.162C146.032,426.029 146.022,423.433 146.171,421.936C146.375,419.891 148.766,419.043 153.576,419.482C158.16,419.901 162.136,419.594 164.816,416.474C165.965,416.288 166.932,414.591 166.048,411.601C165.066,408.28 164.643,406.727 170.703,406.784C174.228,406.817 177.301,407.342 180.054,407.148C185.023,406.799 187.623,404.203 187.51,395.57C194.317,399.452 201.663,400.24 207.532,390.151C209.133,390.724 210.654,391.756 212.032,393.627C213.052,395.014 214.586,395.852 215.45,393.895C216.939,390.525 217.637,387.008 214.744,382.822C213.39,380.863 209.433,382.214 209.982,385.991C208.741,384.021 207.048,386.247 207.048,386.247C204.872,385.592 203.467,384.875 203.175,390.688C198.655,392.134 197.139,391.237 187.5,387.273C181.77,384.268 183.705,390.726 183.017,391.947C182.555,392.767 181.367,393.827 180.055,394.664C176.011,397.244 170.461,395.163 164.167,390.086C163.312,389.812 162.378,389.628 161.039,390.27C158.937,391.277 157.794,393.718 159.676,394.975C161.809,396.4 165.256,398.885 169.06,400.999C164.469,400.316 160.397,400.385 156.624,402.94C154.848,404.142 153.412,404.166 152.275,403.148C151.622,401.79 149.785,399.577 146.895,399.158C146.32,397.729 144.958,397.795 142.108,398.024C140.138,398.183 139.271,398.692 138.654,399.67C136.808,399.509 134.193,402.397 137.844,402.998C139.869,403.332 143.767,406.382 147.26,408.528C143.097,409.029 141.508,410.245 138.231,410.087C135.776,410.648 133.831,410.261 130.812,408.25C126.622,405.458 120.24,406.581 120.285,410.371C120.31,412.418 124.45,414.783 129.666,416.542C109.35,418.387 103.309,412.851 99.936,408.692C98.926,409.676 97.933,413.111 98.745,415.333C96.169,413.898 93.841,414.57 93.131,413.805C91.065,411.578 89.381,411.871 88.788,413.525C87.44,414.023 85.712,413.336 83.8,411.966C81.153,410.438 80.492,406.378 79.063,405.148C75.741,402.289 72.999,402.47 72.333,406.679C72.344,413.202 78.188,419.82 86.115,426.472C74.456,423.352 62.884,415.627 51.48,398.895C49.814,401.198 49.482,409.357 49.506,419.072C47.852,419.003 47.249,416.602 46.867,413.711C43.727,424.355 45.313,434.473 58.012,440.269C46.875,440.769 34.259,437.636 33.645,412.859C33.423,403.898 29.63,396.082 22.673,389.282C27.474,403.257 24.45,411.093 19.635,417.524C19.063,399.868 12.275,399.598 8.33,387.348C11.678,407.554 11.474,425.844 -6.926,434.324C-0.959,428.183 6.549,417.602 -2.747,406.1C-7.279,400.493 -9.668,393.511 -9.888,385.138C-14.177,401.246 -16.834,408.29 -19.082,413.068ZM67.382,435.59C71.582,443.614 77.722,450.664 87.937,449.537C87.646,451.45 87.449,453.454 87.637,455.829C87.921,458.562 88.867,459.102 91.404,459.463C93.71,459.792 96.022,459.871 98.337,459.746C100.359,459.637 101.01,459.194 101.664,457.588L102.875,453.28C105.27,461.743 106.41,465.361 109.145,467.662C113.518,471.342 107.834,476.74 104.71,475.544C96.482,472.392 88.835,471.321 80.402,471.708L80.532,464.733C80.595,461.388 78.712,457.391 74.498,455.446C71.449,454.038 67.454,444.573 67.382,435.59ZM1232.43,123.326C1237.17,121.091 1246.53,113.805 1253.94,108.304C1279.4,89.394 1320.85,90.317 1334.88,113.953C1335.33,114.701 1335.71,115.94 1335.25,116.861C1334.08,119.215 1321.43,119.318 1312.05,115.23C1266.07,95.177 1249.21,119.757 1232.43,123.326ZM1347.68,139.325C1330.69,163.294 1289.01,181.987 1272.37,183.993C1215.04,190.903 1178.77,168.4 1162.69,132.987C1145.19,94.439 1098.26,89.224 1075.13,107.607C1088.8,87.953 1139.3,78.165 1165.58,119.964C1181.1,144.636 1196.42,159.171 1214.13,165.478C1231.3,171.594 1239.89,171.845 1258.83,166.057C1274.66,161.221 1285.28,151.732 1301.22,149.318C1293.2,147.807 1284.71,147.442 1273.74,151.922C1225.1,171.79 1199.42,152.021 1182.14,117.764C1218.54,162.453 1236.99,143.185 1277.35,133.829C1291.06,130.651 1304.57,129.741 1317.69,134.628C1329.14,138.892 1337.82,140.49 1347.68,139.325ZM1342.57,154.2C1313.41,232.152 1282.34,241.603 1250.93,239.117C1274.85,235.267 1296.55,223.49 1312.29,190.448C1268.89,245.967 1227.6,235.651 1187.19,197.86C1243.27,232.483 1256.03,215.8 1275.83,207.283C1249.79,212.543 1224.09,211.805 1199.71,195.013C1183.38,183.764 1170.1,181.656 1162.61,179.164C1153.64,176.181 1144.19,170.556 1145.07,158.84C1145.99,146.658 1140.36,145.619 1132.06,146.576C1141.65,141.66 1149.87,147.564 1149.67,154.268C1149.25,169.182 1162.5,172.932 1168.48,173.306C1188.87,174.579 1201.75,179.038 1213.31,184.052C1263.8,204.52 1309.77,178.806 1342.57,154.2ZM416.955,499.92C419.508,502.098 417.221,516.433 414.682,519.826C413.213,520.485 411.414,520.501 409.444,520.184C402.088,519.001 400.847,511.282 372.449,515.153C378.138,513.824 366.459,491.447 416.955,499.92ZM358.39,536.778C360.079,533.949 362.009,531.015 365.215,527.304C367.147,525.067 370.546,521.958 374.632,521.127C380.549,519.924 389.504,519.882 395.657,522.771C400.217,524.913 404.505,527.873 409.143,531.051C411.028,532.343 410.89,534.28 410.352,535.554C407.137,543.163 404.923,546.75 401.554,551.184C400.601,552.438 398.919,552.625 397.656,551.302C386.749,539.877 373.395,535.212 359.304,537.993C358.613,538.13 358.028,537.385 358.39,536.778ZM332.957,559.475C338.256,554.698 344.012,549.421 350.586,545.01C353.272,543.208 361.348,543.59 368.648,545.005C372.82,545.814 385.229,554.509 392.576,562.345C393.485,563.315 392.838,564.428 392.007,565.488C388.506,569.952 385.098,574.302 380.175,580.523C379.335,581.585 376.708,581.235 375.645,580.45C373.6,578.942 362.489,560.254 334.637,561.822C333.019,561.913 332.164,560.191 332.957,559.475ZM305.184,580.617C310.634,577.62 318.839,570.848 321.984,569.528C327.434,567.24 332.97,567.513 340.871,569.715C348.374,571.806 357.402,578.185 368.139,589.369C369.099,590.37 369.977,592.489 368.116,594.008C363.178,598.043 358.039,602.399 352.222,607.848C350.413,609.542 349.359,609.208 348.073,607.899C338.47,598.135 330.787,587.718 305.132,583.411C304.106,583.239 304.191,581.162 305.184,580.617ZM265.414,606.203C271.252,602.193 280.878,596.035 289.683,591.607C292.87,590.004 301.298,589.817 306.532,591.583C326.395,598.285 332.008,608.018 339.045,617.448C339.807,618.47 339.231,619.862 338.544,620.355C332.241,624.875 326.775,630.16 321.61,635.188C320.487,636.282 318.921,636.905 317.778,635.305C305.489,618.1 285.302,610.182 266.591,608.125C265.416,607.996 264.71,606.686 265.414,606.203ZM286.381,664.357C271.193,643.369 246.663,638.345 227.599,637.351C227.012,637.32 225.856,637.145 225.546,636.903C224.504,636.09 250.28,616.837 254.571,616.258C259.226,615.629 263.151,615.983 266.931,616.532C283.778,618.98 298.19,629.725 308.568,642.486C310.02,644.271 310.194,647.451 308.529,648.88C301.42,654.977 296.234,659.642 291.088,664.359C289.571,665.75 287.61,666.056 286.381,664.357ZM191.951,667.974C194.692,664.704 203.717,656.927 213.364,649.064C216.108,646.828 219.117,645.683 222.289,645.342C226.026,644.941 229.474,645.076 233.058,645.368C250.451,646.788 268.931,660.727 277.672,674.27C278.777,675.982 278.909,677.191 277.758,678.212C271.224,684.008 267.227,688.881 263.755,693.301C262.853,694.449 261.275,694.42 260.166,693.243C241.052,672.948 218.151,667.709 193.521,669.337C192.467,669.407 191.466,668.552 191.951,667.974ZM161.414,705.645C165.692,699.014 171.21,692.058 178.159,684.726C181.972,680.704 184.657,677.402 190.171,676.928C195.92,676.435 201.947,676.443 207.821,676.936C222.515,678.168 241.811,691.924 252.908,702.946C253.953,703.983 253.503,704.938 252.858,705.64C247.435,711.538 244.117,716.177 240.404,721.052C239.376,722.402 237.855,722.412 236.112,721.261C207.684,702.485 184.665,703.162 162.489,706.87C162.019,706.949 160.647,706.834 161.414,705.645ZM137.401,747.357C142.012,740.464 143.808,732.543 149.915,723.396C154.7,716.227 160.313,712.45 170.353,712.946C188.678,713.851 206.518,713.025 230.208,733.061C231.872,734.469 231.871,736.03 230.116,737.986C227.86,740.5 225.324,744.494 222.182,751.705C221.311,753.703 219.977,753.536 217.572,752.931C191.845,746.46 166.119,739.427 140.361,749.077C137.999,749.962 136.439,748.795 137.401,747.357ZM125.011,791.487C127.599,781.877 129.797,774.154 131.85,766.969C133.033,762.83 136.277,760.651 139.253,759.031C159.704,747.905 188.452,754.306 214.45,765.241C215.43,765.654 215.571,767.181 214.782,768.221C213.209,770.292 210.826,776.896 209.494,785.05C209.284,786.331 208.171,786.927 206.379,786.3C194.579,782.172 148.618,787.633 128.185,792.375C126.575,792.749 124.677,792.726 125.011,791.487ZM123.941,835.572C123.098,825.582 122.842,815.601 123.224,805.63C123.351,802.315 133.602,797.958 139.125,796.181C143.107,794.899 150.741,795.224 157.797,797.007C161.755,798.007 165.881,797.979 170.048,797.158C184.891,794.23 200.892,795.879 205.734,797.26C207.008,797.624 207.704,798.234 207.689,799.195C207.581,806.252 207.362,811.911 207.142,817.554C207.077,819.24 205.439,819.549 203.273,819.728C192.647,820.606 181.492,823.498 171.139,826.202C163.257,828.26 155.696,830.417 148.122,831.206C140.806,831.968 133.591,834.076 126.93,836.858C125.516,837.448 124.026,836.578 123.941,835.572ZM205.474,830.761C207.222,830.534 207.797,831.319 207.93,832.753C208.666,840.674 209.899,846.166 210.868,851.667C211.072,852.826 210.323,854.629 209.508,855.083C181.939,870.457 159.306,876.183 140.189,876.365C143.018,877.434 162.414,878.671 170.699,880.984C173.685,881.818 176.259,881.119 178.252,880.653C183.371,879.457 205.905,869.746 212.299,865.498C213.42,864.753 215.231,864.765 215.657,865.901C218.055,872.293 221.045,878.206 224.549,883.703C225.699,885.507 225.399,886.366 224.48,887.42C205.119,909.607 183.91,919.138 164.942,918.402C187.014,921.904 213.532,920.408 229.879,898.66C230.902,897.299 232.872,897.2 233.992,898.726C239.452,906.176 244.165,910.616 249.125,916.049C250.027,917.037 249.674,917.443 249.084,918.256C231.838,942 221.088,947.856 203.44,952.832C198.62,954.191 195.178,954.096 191.428,952.976C183.304,950.551 172.708,939.88 161.293,926.94C162.907,954.142 135.585,960.951 120.785,943.373C116.904,938.765 114.06,932.11 114.168,924.433C114.338,912.295 98.213,894.111 79.13,884.948C102.147,902.819 106.557,929.387 84.867,938.248C79.338,940.506 72.81,940.819 65.55,938.051C53.104,933.305 42.153,940.03 40.353,948.414C36.947,964.282 44.354,971.751 52.582,978.385C16.602,961.252 36.416,919.994 62.889,920.349C86.381,920.665 88.769,903.007 71.52,895.427C78.167,903.724 75.971,909.553 66.566,908.171C61.102,907.368 47.367,894.027 49.905,877.28C51.282,868.194 37.599,861.903 26.057,864.468C13.196,867.327 2.066,880.236 7.434,889.943C16.573,906.468 2.239,919.781 -6.391,915.818C-2.812,930.87 -49.083,961.542 -69.35,901.892C-52.517,924.466 -27.966,921.714 -33.275,900.079C-33.855,897.714 -34.36,896.128 -35.274,894.889C-46.409,890.081 -39.525,875.039 -33.602,870.951C-28.658,867.54 -25.653,866.749 -16.553,868.871C-14.82,869.275 -12.684,871.459 -9.754,870.082C-2.813,866.82 -7.247,841.54 -16.348,836.002C-23.328,831.754 -29.193,833.931 -31.244,839.362C-36.452,853.153 -52.743,854.922 -61.042,846.43C-70.735,856.173 -77.631,866.257 -75.136,886.978C-87.801,863.925 -85.416,830.36 -72.038,821.159C-70.05,819.791 -68.206,818.811 -65.578,818.313C-64.259,818.062 -62.966,816.628 -64.526,814.031C-66.973,809.958 -65.132,807.068 -60.297,805.154C-50.2,801.158 -41.175,803.582 -32.031,809.4C-30.652,810.277 -29.615,810.591 -28.564,809.318C-25.664,805.805 -20.547,803.129 -15.064,800.59C-6.247,794.671 -6.388,785.777 -12.929,779.714C-16.905,776.028 -18.09,772.076 -17.072,767.913C-32.112,774.425 -45.874,764.874 -40.838,752.309C-69.555,762.76 -78.208,773.224 -82.932,783.691C-79.874,759.468 -58.916,733.653 -37.193,730.644C-32.503,729.995 -30.05,730.745 -27.326,733.616C-26.467,734.521 -25.078,734.793 -24.146,733.672C-22.599,731.812 -23.097,726.578 -23.723,723.544C-14.831,718.212 -4.174,722.379 7.075,729.735C13.76,734.107 16.043,745.148 8.891,752.651C7.369,754.248 7.071,755.674 9.294,757.769C11.068,759.44 14.956,758.381 17.993,756.539C21.196,754.546 24.107,752.201 26.351,749.495C28.169,747.302 28.083,744.6 27.709,739.526C27.174,732.262 35.174,728.887 47.827,730.163C39.58,727.222 37.996,721.334 38.811,713.707C39.356,708.598 24.057,701.707 6.44,696.964C32.611,692.43 64.727,700.28 65.342,717.413C65.735,728.37 71.114,724.725 73.758,716.643C82.487,726.86 82.939,733.854 76.225,738.059C80.312,737.977 82.448,738.935 82.725,743.74C83.412,755.618 78.48,760.941 69.797,761.886C64.457,762.467 61.105,761.336 59.495,759.512C56.409,763.291 51.678,765.593 47.794,768.035C44.28,770.245 40.006,776.054 39.69,778.824C39.319,782.073 37.776,783.318 34.372,783.268C33.992,784.282 32.839,784.548 31.284,784.427C40.653,793.806 40.363,808.409 29.797,814.654C30.587,814.613 34.503,815.343 36.103,816.08C45.668,820.489 54.703,826.657 63.836,834.165C75.142,843.458 98.187,853.909 110.425,854.483C113.558,854.63 118.057,854.924 120.215,851.166C126.362,840.465 140.053,835.304 160.123,839.559C162.978,840.164 164.358,840.596 168.228,839.458C173.266,836.964 187.878,833.049 205.474,830.761ZM106.258,921.001C107.279,943.263 114.784,958.524 133.695,961.471C132.872,964.088 131.34,966.973 130.076,967.538C128.425,968.277 127.158,968.324 125.406,967.326C118.988,963.672 109.249,964.782 110.369,974.707C112.172,990.689 125.754,999.627 142.936,1006.41C116.825,1003.06 83.715,983.832 86.418,950.902C98.11,941.866 105.436,932.029 106.258,921.001ZM165.091,952.34C172.447,960.106 180.422,966.41 189.28,970.632C161.244,968.695 164.765,992.556 188.269,999.166C174.7,1002.92 143.745,985.318 148.328,962.496C154.79,960.109 160.346,956.688 165.091,952.34ZM257.423,927.834C258.021,926.918 259.7,926.657 260.888,927.542C269.201,933.735 275.439,937.493 281.941,941.563C283.06,942.263 282.779,943.419 282.158,944.964C273.578,966.317 259.589,972.929 245.257,978.608C242.509,979.697 240.576,979.496 238.058,978.665C221.378,973.165 203.648,962.94 195.065,958.016C194.081,957.452 194.064,955.507 195.766,955.501C222.341,955.401 244.184,948.134 257.423,927.834ZM252.359,980.712C270.003,976.534 285.583,969.108 293.667,949.886C294.217,948.58 296.05,948.445 297.558,949.146C305.892,953.02 314.317,955.776 322.817,957.63C324.74,958.05 325.856,958.85 325.965,960.759C326.992,978.63 316.489,986.138 304.648,992.444C300.641,994.578 296.799,994.897 289.449,993.848C274.507,991.715 261.775,988.227 252.127,982.849C250.947,982.191 251.303,980.962 252.359,980.712ZM314.796,995.508C328.625,988.795 339.716,980.336 336.09,962.485C335.704,960.582 337.283,960.301 340.476,960.861C346.396,961.898 351.375,962.356 355.906,962.538C356.905,962.579 357.257,964.493 356.227,965.845C346.195,979.002 347.65,989.253 348.199,995.916C348.379,998.098 347.367,998.256 345.186,998.32C335.168,998.617 324.967,998.175 314.711,997.514C313.728,997.451 313.932,995.927 314.796,995.508ZM863.834,463.129C868.011,453.608 873.155,444.406 879.191,435.496C879.918,434.423 881.286,433.73 882.234,435.219C885.997,441.13 890.076,446.477 895.284,449.807C896.345,450.485 896.414,451.693 895.459,452.968C890.311,459.836 885.949,468.224 881.537,478.881C880.766,480.742 878.966,480.557 878.026,479.151C874.393,473.716 869.9,472.819 864.458,467.278C863.357,466.156 863.249,464.461 863.834,463.129ZM888.073,421.656C897.152,410.154 906.007,400.416 914.383,394.48C915.813,393.467 916.517,393.689 916.979,395.637C919.088,404.537 922.542,409.4 926.138,413.839C927.171,415.114 926.916,415.987 925.932,416.833C917.966,423.683 910.804,431.345 904.252,440.39C903.591,441.303 902.719,440.822 901.645,439.86C896.636,435.371 892.257,430.221 888.47,424.451L888.073,421.656ZM925.389,385.806C933.499,379.255 942.29,373.361 951.967,368.323C953.174,367.694 954.738,367.794 954.8,368.787C955.359,377.759 957.479,383.942 960.103,389.226C960.886,390.805 961.134,391.879 959.966,392.57C951.293,397.699 944.675,403.274 938.125,408.736C937.18,409.523 936.046,409.39 935.359,408.621C930.532,403.215 927.099,396.645 925.108,388.868C924.846,387.845 924.3,386.686 925.389,385.806ZM966.635,361.102C976.551,356.145 985.455,353.189 993.507,351.919C995.128,351.663 995.922,352.167 995.841,355.093C995.726,359.227 993.356,368.646 994.07,373.815C994.372,375.998 993.572,376.879 991.538,377.259L973.026,387.345C970.47,388.25 969.036,388.002 968.417,385.876C966.514,379.339 966.086,372.827 964.482,364.274C964.238,362.973 965.393,361.723 966.635,361.102ZM1003.37,370.689C1004.69,365.974 1006.06,361.558 1006.35,351.221C1006.4,349.394 1007.13,348.566 1009.99,348.561C1019.5,348.547 1028.26,347.205 1035.51,347.581C1037.86,347.703 1037.72,348.658 1036.8,350.46C1033.86,356.284 1031.97,362.456 1030.93,368.906C1030.69,370.385 1029.15,371.414 1027.29,371.328C1019.64,370.972 1013.36,372.831 1005.72,372.958C1003.62,372.993 1002.92,372.287 1003.37,370.689ZM1039.97,368.868C1040.07,366.02 1044.17,356.281 1047.8,350.37C1048.72,348.865 1050.04,348.832 1052.67,349.167C1060.63,350.181 1068.36,352.102 1079.36,355.287C1081.36,355.859 1080.39,358.089 1079.29,358.855C1070.24,365.15 1063.78,372.307 1063.12,375.712C1062.84,377.147 1060.77,376.71 1058.57,375.917C1053.54,374.107 1048.81,372.746 1041.12,371.842C1040.03,371.093 1039.94,369.896 1039.97,368.868ZM1088.65,363.077C1089.89,362.06 1092.15,362.176 1093.86,363.106C1101.36,367.182 1107.94,371.833 1113.82,376.924C1115.19,378.107 1114.59,380.139 1113.52,380.544C1107.21,382.918 1101.14,386.714 1095.4,392.518C1094.05,393.885 1092.99,394.006 1091.33,392.619C1086.02,388.173 1079.77,384.338 1072.04,381.488C1069.89,380.697 1069.89,377.586 1071.96,376.078C1078.78,371.103 1083.96,366.931 1088.65,363.077ZM1102.2,399.857C1101.09,398.906 1101.1,397.698 1102.37,396.811C1107.77,393.06 1113.61,389.849 1119.62,386.852C1121.22,386.151 1122.69,386.063 1123.94,387.14C1129.12,392.904 1134.18,398.824 1139.03,405.029C1140.24,406.576 1140.36,407.303 1138.98,407.859C1133.55,410.046 1128.12,412.185 1122.81,416.637C1121.53,417.708 1120.61,417.991 1119.64,416.912C1114.31,410.943 1108.51,405.248 1102.2,399.857ZM469.37,987.911C484.147,990.801 489.453,996.994 485.08,1006.56C490.369,1007.33 493.464,1009.16 491.95,1016.09C488.887,1030.1 492.685,1034.89 509.195,1034.77C514.678,1034.73 518.616,1043.23 516.544,1048.52C519.787,1044.86 526.492,1042 532.248,1043.46C537.539,1037.49 546.296,1032.58 557.511,1028.43C575.092,1021.91 583.994,1011.9 585.979,1001.47C579.663,1007.99 571.27,1006.27 565.689,1000.48C560.336,994.932 562.788,988.536 568.33,986.333C530.185,992.581 473.251,927.739 467.495,896.101C452.472,813.524 549.566,826.996 552.657,854.747C565.949,833.404 610.334,825.475 615.133,840.298C634.367,836.409 656.64,865.16 654.639,875.117C654.639,875.117 648.366,868.731 635.651,863.571C596.908,847.851 546.574,868.996 533.439,892.656C527.845,902.732 523.962,932.717 556.055,948.77C574.989,958.241 597.29,955.138 607.467,945.075C624.603,928.129 617.693,895.489 575.711,903.279C599.42,909.873 594.958,936.039 573.666,934.348C554.29,932.809 551.509,913.99 552.729,907.965C559.356,875.21 597.736,867.647 622.197,872.379C632.072,874.289 652.814,884.219 650.296,894.377C697.636,908.434 706.99,975.848 662.011,992.467C638.96,1000.98 625.117,1010.21 619.884,1021.44C628.035,1012.74 639.642,1007.59 654.853,1006.12C680.967,1003.61 696.073,1030.35 664.27,1044C644.449,1052.5 640.626,1063.52 651.959,1073.27C640.28,1068.42 629.854,1051.96 650.902,1033.94C664.795,1022.05 650.331,1013.72 636.476,1023.32C639.875,1025.11 641.24,1027.4 639.909,1030.35C636.382,1038.18 619.192,1045.69 603.137,1045.73C576.227,1049.8 564.97,1066.99 556.896,1086.83C564.912,1090.6 568.125,1103.75 559.851,1107.09C557.433,1108.06 552.918,1104.96 551.336,1108.64C555.297,1110 556.165,1112.24 555.6,1114.71C551.731,1131.68 516.436,1143.04 494.151,1136.14C511.827,1129.64 528.684,1123.03 526.992,1114.01C512.825,1114.62 512.858,1103.04 526.004,1097.89C537.659,1093.32 531.969,1074.82 517.208,1075.97C501.927,1077.17 488.131,1082.86 475.294,1091.44C476.549,1106 465.131,1113.31 455.019,1108.94C444.502,1110.32 470.016,1137.55 482.601,1137.71C439.335,1144.39 412.229,1101.39 436.898,1094.85C427.132,1088.5 432.203,1076.52 452.671,1077.92C462.108,1078.57 466.993,1073.13 466.5,1067.26C458.855,1072.24 453.871,1069.66 450.11,1063.6C446.496,1070.82 426.169,1075.72 424.2,1065.83C405.243,1079.06 404.37,1090.94 406.675,1102.59C393.184,1079.54 402.703,1044.99 426.322,1043.8C426.016,1040.52 424.951,1036.53 422.992,1034.32C438.285,1025.91 448.264,1029.91 456.167,1043.97C461.401,1053.29 473.512,1043.32 469.462,1037.88C459.874,1025.01 437.627,1020.65 462.608,1009C456.52,1009.7 449.535,1010.1 449.188,1007.44C447.748,996.373 432.948,997.05 414.2,1006.01C422.092,995.525 452.511,977.603 465.034,995.532C466.712,997.934 473.123,994.823 469.37,987.911ZM863.738,544.969C850.425,541.155 849.193,557.871 858.158,562.708C889.743,579.746 934.793,547.921 925.939,501.905C944.627,531.72 933.825,585.842 895.106,588.62C868.762,588.343 855.957,596.344 852.481,610.052C845.799,592.997 838.627,594.563 828.583,582.011C809.685,558.395 844.939,529.826 863.738,544.969ZM1201.66,495.663C1202.31,495.021 1199.38,502.401 1202.98,514.834C1203.46,516.492 1204.75,521.186 1204.1,520.55C1198.82,515.443 1197.08,514.165 1191.52,506.944C1190.55,505.675 1190.83,504.469 1191.82,503.83C1196.37,500.896 1197.41,499.934 1201.66,495.663ZM1289.6,555.357C1296.57,559.957 1312.87,566.235 1314.43,565.396C1314.43,565.396 1318.03,571.372 1318.5,572.397C1320.71,577.206 1321.25,581.89 1319.51,583.063C1316.8,584.886 1306.38,582.34 1300.34,581.244C1292.93,579.901 1283.92,575.936 1276.14,571.286C1274.77,570.469 1274.3,570.175 1275.19,569.358C1279.25,565.605 1283.29,561.804 1286.69,556.988C1287.2,556.264 1288.86,554.867 1289.6,555.357ZM1450.22,553.024C1455.49,550.955 1454.04,551.708 1460.43,548.608C1461.12,548.273 1462.54,548.253 1463.09,549.064C1465.63,552.746 1466.09,553.109 1467.5,558.373C1467.88,559.78 1467.58,560.168 1466.21,560.693C1460.14,563.021 1459.89,563.65 1452.1,566.671C1450.74,567.199 1450.3,566.373 1449.95,565.474C1448.34,561.34 1447.21,556.248 1447.23,554.648C1447.23,554.099 1449.11,553.46 1450.22,553.024ZM1468.16,544.467C1475.43,540.553 1482.1,536.345 1488.14,531.821C1488.79,531.332 1490.24,531.65 1490.98,532.408C1493.28,534.796 1494.69,536.248 1495.78,539.147C1496.46,540.958 1497.05,541.864 1495.35,542.94C1489.57,546.608 1483.95,552.426 1476.21,556.042C1474.85,556.678 1473.25,556.957 1472.86,555.976C1471.04,551.468 1471.25,550.915 1468.15,546.43C1467.68,545.756 1467.43,544.861 1468.16,544.467ZM1494.68,526.264C1500.4,521.198 1505.33,517.41 1509.88,511.942C1510.38,511.352 1511.41,510.965 1512.09,511.708C1514.09,513.9 1516.46,515.973 1518.04,518.398C1518.78,519.528 1519.96,519.588 1518.35,521.175C1514.63,524.846 1509.95,530.436 1503.78,535.283C1502.69,536.135 1500.89,535.811 1500.4,534.905C1498.13,530.741 1499,532.759 1495.42,528.978C1494.34,527.834 1494.1,526.773 1494.68,526.264ZM1515.45,506.365C1520.22,501.086 1524.46,495.667 1528.13,490.099C1528.53,489.498 1528.9,489.743 1529.57,490.422C1531.21,492.093 1533.42,493.505 1535.65,497.295C1536.42,498.598 1536.43,498.855 1535.83,499.847C1532.75,504.932 1529.57,509.407 1524.22,514.111C1523.26,514.962 1522.22,515.077 1521.68,514.255C1519.22,510.475 1519.35,511.659 1515.89,508.192C1515.37,507.672 1514.97,506.896 1515.45,506.365ZM1531.37,483.799C1533.61,479.268 1536.68,473.804 1538.03,467.578C1538.18,466.905 1538.55,467.056 1539.17,467.73C1542.6,471.463 1542.25,470.586 1544.8,474.226C1545.67,475.478 1545.95,475.708 1545.77,476.379C1544.26,481.77 1541.19,489.826 1540.06,491.915C1539.02,493.828 1539.23,493.508 1538.35,493.016C1536.45,491.956 1534.84,488.868 1531.47,485.718C1530.96,485.245 1531.06,484.439 1531.37,483.799ZM1539.82,461.457C1541.48,457.149 1542.53,450.401 1543.01,445.905C1543.13,444.759 1543.92,444.505 1544.39,444.845C1547.33,446.94 1550.19,452.925 1551.34,456.28C1551.73,457.405 1551.87,457.27 1551.73,457.746C1550.6,461.572 1549.88,465.722 1547.96,469.945C1547.62,470.687 1547.16,470.577 1546.73,470.026C1544.78,467.489 1542.8,464.968 1540.36,462.753C1540,462.421 1539.65,461.891 1539.82,461.457ZM1184.37,469.902C1190.61,477.334 1195.59,481.865 1200.6,487.009C1201.08,487.503 1200.36,487.836 1199.78,488.442C1195.74,492.696 1192.14,496.675 1187.62,499.136C1186.95,499.499 1185.64,500.032 1184.13,498.557C1178.03,492.606 1174.74,489.127 1169.8,482.621C1169.08,481.673 1170.56,480.742 1171.65,479.987C1175.84,477.103 1179.97,474.739 1182.79,469.927C1183.08,469.434 1183.97,469.561 1184.37,469.902ZM1455.28,573.674C1458.37,571.122 1485.41,559.69 1505.04,544.024C1510.18,539.923 1518.2,532.223 1533.84,539.637C1521.82,538.468 1516.78,548.567 1515.12,553.281C1509.42,569.418 1526.15,568.232 1528.28,568.073C1540.03,567.194 1557.24,553.526 1547.52,533.658C1552.09,534.605 1557.73,539.892 1557.73,539.892C1568.1,522.202 1582.57,519.64 1585.14,520.759C1577.34,523.132 1566.62,537.29 1562.15,552.967C1562.68,552.488 1550.29,593.669 1527.14,600.957C1499.82,609.553 1466.64,596.308 1455.28,573.674Z"
              style="fill:white;"/>
    </g>
</svg>
